#!OML:ASF F:\VICON\USERDATA\INSTALL\rory3\rory3.ASF
:FULLY-SPECIFIED
:DEGREES
4622
root 14.9548 17.8801 -10.307 1113.69 -83.0009 328.766
lowerback 12.8462 5.6448 5.72485
upperback 3.53037 7.99429 -1.51918
thorax -2.41074 3.93316 -5.89281
lowerneck -13.3595 8.51715 -8.6972
upperneck 47.3312 13.0575 3.75532
head 19.8073 3.43283 5.65462
rclavicle 4.96962e-017 2.66371e-014
rhumerus -28.3281 -3.67336 -84.0537
rradius 41.8999
rwrist 1.69479
rhand -17.3894 7.32961
rfingers 7.12502
rthumb 8.8596 -22.4644
lclavicle 4.96962e-017 2.66371e-014
lhumerus -41.0694 9.10749 80.9631
lradius 43.7218
lwrist -6.22175
lhand -14.8764 25.2325
lfingers 7.12502
lthumb 11.2839 54.909
rfemur -6.6431 1.64708 19.918
rtibia 24.7222
rfoot -18.2278 4.06274
rtoes -6.6197
lfemur -24.1971 -23.0175 -13.1637
ltibia 45.3417
lfoot -12.6743 -25.7369
ltoes -3.73439
4623
root 14.9802 17.8789 -10.2828 1119.54 -83.963 322.926
lowerback 12.7128 5.69613 5.73561
upperback 3.50463 8.05842 -1.51035
thorax -2.35664 3.9671 -5.88178
lowerneck -13.368 8.55366 -8.72435
upperneck 47.3486 13.0573 3.82749
head 19.8052 3.4266 5.69106
rclavicle -7.88678e-014 7.7526e-015
rhumerus -28.3072 -3.79565 -83.8813
rradius 41.5403
rwrist 2.25741
rhand -16.9767 7.62557
rfingers 7.12502
rthumb 9.25782 -22.1512
lclavicle -7.88678e-014 7.7526e-015
lhumerus -41.2081 8.87331 81.1694
lradius 43.4792
lwrist -6.02182
lhand -15.0384 25.2629
lfingers 7.12502
lthumb 11.1278 54.9479
rfemur -6.98408 1.82151 19.6939
rtibia 24.8133
rfoot -18.0521 5.1587
rtoes -5.95824
lfemur -23.9795 -23.5742 -13.2643
ltibia 45.512
lfoot -11.4343 -27.2008
ltoes -1.24913
4624
root 15.0025 17.8793 -10.257 1128.28 -84.8563 314.195
lowerback 12.6076 5.77973 5.71022
upperback 3.43561 8.16538 -1.4813
thorax -2.36582 4.01877 -5.84131
lowerneck -13.3455 8.62527 -8.60185
upperneck 47.3606 13.074 3.86229
head 19.8088 3.44872 5.68593
rclavicle -9.88954e-014 2.38542e-014
rhumerus -28.2715 -4.26821 -83.6487
rradius 41.0751
rwrist 2.3734
rhand -16.2914 8.20224
rfingers 7.12502
rthumb 9.91905 -21.5441
lclavicle -9.88954e-014 2.38542e-014
lhumerus -41.5066 8.77118 81.2779
lradius 43.3173
lwrist -6.0913
lhand -15.4011 25.3372
lfingers 7.12502
lthumb 10.7779 55.0406
rfemur -7.29688 2.12374 19.5178
rtibia 24.8461
rfoot -17.8656 6.18446
rtoes -5.22803
lfemur -23.7167 -23.956 -13.3469
ltibia 45.5909
lfoot -9.66172 -28.7705
ltoes 2.56049
4625
root 15.0248 17.8833 -10.2314 1140.08 -85.5953 302.388
lowerback 12.5083 5.82923 5.60345
upperback 3.40609 8.21617 -1.41286
thorax -2.36233 4.04283 -5.70725
lowerneck -13.4092 8.72256 -8.52233
upperneck 47.361 13.2073 3.7964
head 19.8305 3.49272 5.66417
rclavicle -1.09829e-014 -8.94531e-015
rhumerus -28.1139 -4.52589 -83.5599
rradius 40.5652
rwrist 1.55307
rhand -16.4717 8.53454
rfingers 7.12502
rthumb 9.74507 -21.22
lclavicle -1.09829e-014 -8.94531e-015
lhumerus -41.8082 8.93648 81.3458
lradius 43.2253
lwrist -6.36561
lhand -15.2554 25.5519
lfingers 7.12502
lthumb 10.9184 55.248
rfemur -7.64763 2.59764 19.3497
rtibia 25.0074
rfoot -17.7307 7.09801
rtoes -4.31754
lfemur -23.4048 -24.4339 -13.382
ltibia 45.5226
lfoot -6.83758 -30.2247
ltoes 9.72332
4626
root 15.0492 17.8868 -10.202 1156.6 -85.8236 285.754
lowerback 12.526 5.80336 5.79809
upperback 3.43013 8.20979 -1.24269
thorax -2.34512 4.03835 -5.63573
lowerneck -13.568 8.83152 -8.64278
upperneck 47.3681 13.4349 3.7495
head 19.8517 3.53878 5.70558
rclavicle -2.80286e-014 2.04748e-014
rhumerus -28.0091 -4.00172 -83.6073
rradius 40.3169
rwrist 0.503789
rhand -16.5458 8.07183
rfingers 7.12502
rthumb 9.6736 -21.686
lclavicle -2.80286e-014 2.04748e-014
lhumerus -42.0548 9.23958 81.4325
lradius 43.1342
lwrist -6.62153
lhand -15.0711 25.441
lfingers 7.12502
lthumb 11.0961 55.1277
rfemur -7.9363 3.02338 19.4898
rtibia 25.2208
rfoot -17.6061 7.9903
rtoes -3.5358
lfemur -22.9755 -25.0474 -13.064
ltibia 45.3566
lfoot -3.29036 -31.2311
ltoes 17.9271
4627
root 15.0642 17.8888 -10.1934 1175.89 -86.5462 266.676
lowerback 12.1 5.91942 4.78751
upperback 3.43029 8.22119 -1.25488
thorax -2.25794 4.04698 -5.04845
lowerneck -13.824 8.91193 -9.00406
upperneck 47.428 13.6455 3.86834
head 19.8863 3.55286 5.87345
rclavicle -4.46769e-014 1.55052e-014
rhumerus -27.9321 -3.68252 -83.3531
rradius 40.0734
rwrist 1.15871
rhand -14.8592 7.78815
rfingers 7.12502
rthumb 11.3006 -21.8874
lclavicle -4.46769e-014 1.55052e-014
lhumerus -42.2946 9.59785 81.5339
lradius 43.0662
lwrist -6.68275
lhand -15.4323 25.355
lfingers 7.12502
lthumb 10.7478 55.0601
rfemur -8.62911 3.50391 18.6538
rtibia 25.513
rfoot -17.428 8.92919
rtoes -2.45952
lfemur -22.7754 -25.5704 -13.6183
ltibia 45.0731
lfoot -1.16001 -31.6276
ltoes 21.36
4628
root 15.0803 17.8836 -10.1702 1197.92 -86.4985 244.616
lowerback 11.9218 6.03289 4.39612
upperback 3.475 8.31384 -1.27941
thorax -2.1571 4.09619 -4.84584
lowerneck -14.0118 8.92644 -9.16046
upperneck 47.4618 13.6941 3.94242
head 19.9295 3.5367 5.95662
rclavicle -5.30755e-014 -2.18663e-015
rhumerus -27.9337 -3.33983 -83.2292
rradius 39.9316
rwrist 0.842839
rhand -14.6888 7.61727
rfingers 7.12502
rthumb 11.4648 -22.0492
lclavicle -5.30755e-014 -2.18663e-015
lhumerus -42.465 9.70348 81.6137
lradius 42.9439
lwrist -6.72243
lhand -15.3771 25.3787
lfingers 7.12502
lthumb 10.8011 55.081
rfemur -9.07574 4.00517 18.1418
rtibia 25.8648
rfoot -17.3621 9.81818
rtoes -2.2251
lfemur -22.2368 -25.9805 -14.0577
ltibia 44.7796
lfoot -0.254596 -32.032
ltoes 21.8865
4629
root 15.0994 17.8724 -10.1342 1210.49 -85.779 231.898
lowerback 11.9668 6.08065 4.67618
upperback 3.41057 8.41362 -1.29476
thorax -2.19403 4.14442 -5.03406
lowerneck -13.75 8.94682 -8.89114
upperneck 47.3364 13.5687 3.88445
head 19.8142 3.53822 5.828
rclavicle -8.62228e-014 5.36719e-015
rhumerus -28.1165 -3.71668 -83.0962
rradius 39.6621
rwrist 1.1462
rhand -15.6228 7.89767
rfingers 7.12502
rthumb 10.564 -21.8168
lclavicle -8.62228e-014 5.36719e-015
lhumerus -42.8136 9.52831 81.5408
lradius 42.8786
lwrist -6.9041
lhand -14.5604 25.4585
lfingers 7.12502
lthumb 11.5887 55.1181
rfemur -9.41533 4.27358 18.1328
rtibia 26.3176
rfoot -17.3899 10.6739
rtoes -2.56515
lfemur -21.5596 -26.5133 -14.0501
ltibia 44.4595
lfoot 1.05271 -32.567
ltoes 23.1596
4630
root 15.1184 17.8554 -10.0976 1219 -84.779 223.221
lowerback 12.0431 6.1394 4.94074
upperback 3.29634 8.53326 -1.24339
thorax -2.30987 4.19815 -5.1552
lowerneck -13.3607 8.98229 -8.60954
upperneck 47.1916 13.4574 3.77799
head 19.657 3.54399 5.663
rclavicle -1.57537e-014 5.1684e-015
rhumerus -28.3237 -4.22423 -82.896
rradius 39.3799
rwrist 1.58327
rhand -16.6434 8.02557
rfingers 7.12502
rthumb 9.57944 -21.7367
lclavicle -1.57537e-014 5.1684e-015
lhumerus -43.3174 9.24355 81.5621
lradius 42.8917
lwrist -6.72814
lhand -14.2291 25.3844
lfingers 7.12502
lthumb 11.9082 55.0257
rfemur -9.74703 4.48057 18.2176
rtibia 26.7079
rfoot -17.3283 11.6727
rtoes -2.51304
lfemur -20.8747 -26.7057 -13.9483
ltibia 44.1599
lfoot 2.67779 -33.3168
ltoes 24.7937
